<?xml version="1.0"?>
<svg xmlns="http://www.w3.org/2000/svg" id="_x33_0" enable-background="new 0 0 64 64" height="512px" viewBox="0 0 64 64" width="512px"><g><g><g><g><path d="m19.55 7.3c-.35-.52-.55-1.13-.55-1.8 0-.74.25-1.42.68-1.97s1.04-.96 1.75-1.14c1.04-.26 2.12-.39 3.19-.39h4.91c2.3 0 4.58.37 6.76 1.1 2.6.86 4.78 2.52 6.31 4.63 1.52 2.12 2.4 4.71 2.4 7.45 0 2.13-.53 4.19-1.51 6.01-.97 1.83-2.39 3.41-4.16 4.59l-3.33 2.22v-4l.6-.4c.75-.5 1.35-1.17 1.76-1.94.42-.77.64-1.64.64-2.54 0-.58-.24-1.12-.62-1.5s-.92-.62-1.5-.62c-.56 0-1.1.22-1.5.62l-.38.38-.39-1.54c-.37-1.5-1.58-2.65-3.09-2.96l-8.14-1.43c-.23-.02-.6-.05-.83-.07-.9 0-1.69.63-1.89 1.52l-.08.37-1.28-.31c-1.35-.34-2.3-1.56-2.3-2.95 0-1.02.51-1.97 1.35-2.53z" fill="#fcd770" data-original="#FCD770"/></g><g><path d="m52.42 50.41-.43-3.15-.62-4.57c-.24-1.76-.96-3.42-2.07-4.81-1.48-1.86-3.59-3.11-5.92-3.54l-5.74-1.04c-.95-.17-1.64-1-1.64-1.97v-3.33-4l.6-.4c.75-.5 1.35-1.17 1.76-1.94.42-.77.64-1.64.64-2.54 0-.58-.24-1.12-.62-1.5s-.92-.62-1.5-.62c-.56 0-1.1.22-1.5.62l-.38.38-.39-1.54c-.37-1.5-1.58-2.65-3.09-2.96l-8.14-1.43c-.23-.02-.6-.05-.83-.07-.9 0-1.69.63-1.89 1.52l-.08.37-1.58 7.11c.64.64 1.51 1 2.41 1h.59v4 .59c0 .9.36 1.77 1 2.41s1.51 1 2.41 1c.89 0 1.77-.17 2.59-.51v1.84c0 .97-.69 1.8-1.64 1.97l-5.74 1.04c-2.33.43-4.44 1.68-5.92 3.54-1.11 1.39-1.83 3.05-2.07 4.81l-.05.34h.01l-.78 5.72-1.81 13.25h7l.54-3.27 2.23-13.36c.4 1.11 1.28 1.98 2.38 2.38l.55 2.74c.2 1 .3 2.03.3 3.05 0 2.3-.23 4.6-.68 6.85l-.32 1.61h20l-.32-1.61c-.31-1.55-.52-3.12-.61-4.71l-.02-3.38h.01c.17-1.43.2-1.62.24-1.81l.55-2.74c1.1-.4 1.98-1.27 2.38-2.38l1.28 7.67.98 5.92.51 3.04h7z" fill="#f0d0b4" data-original="#F0D0B4"/></g><g><circle cx="32" cy="22" fill="#cf9e76" r="2" data-original="#CF9E76"/></g><g><circle cx="24" cy="38" fill="#cf9e76" r="2" data-original="#CF9E76"/></g><g><path d="m13 43c1.66 0 3 1.34 3 3s-1.34 3-3 3c-.42 0-.83-.09-1.19-.25l.77-5.72h.01c.13-.02.27-.03.41-.03z" fill="#cf9e76" data-original="#CF9E76"/></g><g><path d="m17.54 58.73-.54 3.27h-1c-1.1 0-2-.9-2-2s.9-2 2-2c.62 0 1.18.28 1.54.73z" fill="#cf9e76" data-original="#CF9E76"/></g><g><path d="m41 53.54c0 .72.02 1.43.07 2.14-.31.21-.67.32-1.07.32-1.1 0-2-.9-2-2s.9-2 2-2c.39 0 .74.11 1.05.3h.01z" fill="#cf9e76" data-original="#CF9E76"/></g><g><path d="m51.99 47.26.43 3.15c-.36.36-.86.59-1.42.59-1.1 0-2-.9-2-2s.9-2 2-2c.36 0 .7.1.99.26z" fill="#cf9e76" data-original="#CF9E76"/></g><g><path d="m46 53c1.66 0 3 1.34 3 3 0 1.49-1.08 2.72-2.51 2.96l-.98-5.92c.16-.03.32-.04.49-.04z" fill="#cf9e76" data-original="#CF9E76"/></g></g><g><path d="m23.707 16.292-1.414 1.415c.834.834 1.942 1.293 3.121 1.293h1.586v-2h-1.586c-.644 0-1.251-.251-1.707-.708z" data-original="#000000" class="active-path" style="fill:#000000"/><path d="m31 39h2v6h-2z" data-original="#000000" class="active-path" style="fill:#000000"/><circle cx="40" cy="44" r="1" data-original="#000000" class="active-path" style="fill:#000000"/><circle cx="24" cy="44" r="1" data-original="#000000" class="active-path" style="fill:#000000"/><path d="m42.732 48.435c.319-.164.621-.354.897-.58l2.524 15.145h8.992l-2.787-20.44c-.265-1.942-1.052-3.778-2.276-5.309-1.635-2.043-3.952-3.426-6.527-3.894l-5.732-1.042c-.477-.087-.823-.501-.823-.984v-2.796l2.882-1.921c3.831-2.554 6.118-6.828 6.118-11.432 0-5.923-3.775-11.161-9.395-13.035-2.285-.761-4.664-1.147-7.072-1.147h-4.91c-1.158 0-2.316.143-3.439.423-1.875.469-3.184 2.145-3.184 4.077 0 .509.096.999.265 1.455l-.466.31c-1.126.752-1.799 2.008-1.799 3.362 0 1.857 1.259 3.468 3.061 3.919l.331.083-1.487 6.691.389.388c.736.735 1.685 1.179 2.707 1.273v3.605c0 1.18.459 2.288 1.293 3.122s1.941 1.292 3.12 1.292c.533 0 1.064-.065 1.586-.174v.506c0 .483-.346.897-.821.984l-5.733 1.042c-2.575.468-4.893 1.851-6.527 3.894-1.225 1.531-2.012 3.367-2.276 5.309l-2.789 20.439h8.992l2.524-15.145c.276.226.578.417.897.58l.45 2.253c.188.934.283 1.893.283 2.851 0 2.23-.222 4.471-.659 6.66l-.561 2.801h22.44l-.561-2.801c-.437-2.19-.659-4.43-.659-6.66 0-.958.095-1.917.282-2.852zm-2.696 6.559c-.012.001-.024.006-.036.006-.552 0-1-.449-1-1s.448-1 1-1c.009 0 .017.003.026.004-.005.178-.026.356-.026.535 0 .484.016.97.036 1.455zm7.235 2.552-.569-3.412c.756.286 1.298 1.011 1.298 1.866 0 .62-.28 1.178-.729 1.546zm3.812-9.535.262 1.921c-.11.04-.225.068-.345.068-.552 0-1-.449-1-1s.448-1 1-1c.028 0 .055.008.083.011zm-33.083-37.384c0-.684.34-1.318.908-1.697l.474-.316c.5.452 1.111.791 1.801.963l1.574.394.484-1.94-1.574-.394c-.98-.246-1.667-1.125-1.667-2.137s.687-1.891 1.668-2.136c.966-.241 1.96-.364 2.955-.364h4.91c2.192 0 4.359.352 6.439 1.045 4.802 1.601 8.028 6.076 8.028 11.137 0 3.934-1.954 7.585-5.228 9.768l-1.772 1.181v-1.596l.159-.106c1.779-1.185 2.841-3.17 2.841-5.308 0-1.721-1.4-3.121-3.121-3.121-.442 0-.879.096-1.279.276l-.016-.063c-.466-1.864-1.985-3.313-3.894-3.694l-8.222-1.442-.915-.077c-1.167 0-2.18.674-2.653 1.694l-.355-.089c-.909-.227-1.545-1.041-1.545-1.978zm-4.543 33.431c.882.207 1.543.997 1.543 1.942 0 1.103-.897 2-2 2-.027 0-.053-.007-.08-.008zm2.543 16.942c-.552 0-1-.449-1-1s.448-1 1-1c.167 0 .323.049.466.126l-.313 1.874zm7.22 0 .082-.41c.463-2.318.698-4.69.698-7.051 0-1.089-.108-2.181-.321-3.243l-.261-1.306c.038 0 .075.01.113.01h5.469v-2h-5.469c-1.51 0-2.789-1.13-2.977-2.628l-.563-4.496-1.984.248.563 4.496c.035.278.1.545.178.807l-1.948 11.694c-.259-.072-.525-.121-.8-.121-1.654 0-3 1.346-3 3 0 .352.072.686.184 1h-2.039l1.505-11.036c.118.011.231.036.35.036 2.206 0 4-1.794 4-4 0-1.939-1.387-3.558-3.221-3.921.294-1.302.863-2.53 1.702-3.578 1.332-1.666 3.223-2.793 5.322-3.175l5.734-1.042c1.427-.262 2.463-1.503 2.463-2.953v-1.213l2.447-1.224-.895-1.789-2.582 1.291c-.788.396-1.673.604-2.556.604-.645 0-1.251-.251-1.707-.708-.36-.36-.587-.815-.668-1.309 1.525-.041 3.044-.407 4.408-1.089l-.895-1.789c-1.099.55-2.323.846-3.553.881v-3.986h-1.586c-.47 0-.919-.133-1.305-.382l1.529-6.885c.097-.432.473-.733.827-.737l8.855 1.488c1.131.227 2.043 1.096 2.323 2.214l.813 3.259 1.628-1.628c.212-.209.501-.329.796-.329.618 0 1.121.503 1.121 1.121 0 1.468-.729 2.83-1.95 3.644l-1.05.7v7.866c0 1.45 1.036 2.691 2.464 2.952l5.733 1.042c2.1.382 3.99 1.509 5.322 3.176.999 1.248 1.641 2.745 1.856 4.329l.435 3.189c-1.564.1-2.81 1.391-2.81 2.981 0 1.654 1.346 3 3 3 .21 0 .417-.024.618-.066l1.236 9.066h-5.008l-.226-1.356c1.419-.627 2.38-2.025 2.38-3.644 0-2.085-1.608-3.782-3.647-3.964l-1.101-6.609c.078-.261.143-.529.178-.807l.563-4.496-1.984-.248-.563 4.496c-.188 1.498-1.467 2.628-2.977 2.628h-5.469v2h5.469c.039 0 .075-.01.113-.011l-.261 1.305c-.048.238-.07.48-.107.72-.071-.004-.142-.014-.214-.014-1.654 0-3 1.346-3 3s1.346 3 3 3c.057 0 .112-.01.169-.013.117 1.21.292 2.414.53 3.604l.081.409z" data-original="#000000" class="active-path" style="fill:#000000"/><path d="m35 22h-2c0 .551-.448 1-1 1s-1-.449-1-1 .448-1 1-1v-2c-1.654 0-3 1.346-3 3s1.346 3 3 3 3-1.346 3-3z" data-original="#000000" class="active-path" style="fill:#000000"/><path d="m24 35v2c.552 0 1 .449 1 1s-.448 1-1 1-1-.449-1-1h-2c0 1.654 1.346 3 3 3s3-1.346 3-3-1.346-3-3-3z" data-original="#000000" class="active-path" style="fill:#000000"/><path d="m27 55h2v2h-2z" data-original="#000000" class="active-path" style="fill:#000000"/><path d="m33 57h2v2h-2z" data-original="#000000" class="active-path" style="fill:#000000"/><path d="m39 38h2v2h-2z" data-original="#000000" class="active-path" style="fill:#000000"/><path d="m14 53h2v2h-2z" data-original="#000000" class="active-path" style="fill:#000000"/><path d="m29 51h2v2h-2z" data-original="#000000" class="active-path" style="fill:#000000"/><path d="m33 35h2v2h-2z" data-original="#000000" class="active-path" style="fill:#000000"/></g></g></g> </svg>
