<svg id="Layer_1" data-name="Layer 1" xmlns="http://www.w3.org/2000/svg" viewBox="0 0 546.04 103.22"><defs><style>.cls-1,.cls-4{fill:none;stroke:#fff;stroke-linecap:round;stroke-linejoin:round;}.cls-1{stroke-width:1.29px;}.cls-2{fill:#4fc1b7;}.cls-2,.cls-3,.cls-5,.cls-6,.cls-7,.cls-8{fill-rule:evenodd;}.cls-2,.cls-6,.cls-7,.cls-8{opacity:0.75;}.cls-3,.cls-5{fill:#00aa4f;}.cls-3{opacity:0.25;}.cls-4{stroke-width:0.98px;}.cls-6{fill:#a4dad7;}.cls-7{fill:#00adb3;}.cls-16,.cls-8{fill:#008381;}.cls-11,.cls-14,.cls-9{font-size:19.88px;fill:#818181;}.cls-11,.cls-14,.cls-16,.cls-9{font-family:BinnerDi, Binner_Di;}.cls-10{letter-spacing:0em;}.cls-11,.cls-13{letter-spacing:0em;}.cls-12{letter-spacing:0em;}.cls-14{letter-spacing:0em;}.cls-15{letter-spacing:0em;}.cls-16{font-size:67.15px;}</style></defs><title>Doverie_logo</title><line class="cls-1" x1="118.85" y1="20.61" x2="118.3" y2="20.61"/><line class="cls-1" x1="119.01" y1="74.72" x2="119.01" y2="27.92"/><polyline class="cls-2" points="0 33.59 28.44 33.59 28.44 5.15 69.63 5.15 69.63 33.59 98.06 33.59 98.06 74.78 69.63 74.78 69.63 103.22 28.44 103.22 28.44 74.78 0 74.78"/><polyline class="cls-3" points="4.69 28.93 9.72 30.2 14.57 32.07 19.16 34.51 23.43 37.47 27.32 40.92 30.77 44.81 33.73 49.08 36.15 53.67 38.02 58.52 39.29 63.56 39.95 68.71 40 73.91 34.24 70.73 28.83 67 23.83 62.74 19.27 58.01 15.21 52.84 11.69 47.29 8.75 41.41 6.4 35.27 4.69 28.93"/><path class="cls-4" d="M16.43,29.44A43.52,43.52,0,0,1,51.8,72.19c0,.74,0,1.49-.06,2.23" transform="translate(-11.74 -0.51)"/><path class="cls-4" d="M51.74,74.42a65.52,65.52,0,0,1-35.31-45" transform="translate(-11.74 -0.51)"/><polyline class="cls-5" points="51.87 25.32 52.67 22.39 52.93 19.36 52.63 16.34 51.78 13.43 50.41 10.72 48.57 8.3 46.32 6.27 44.85 4.55 43.7 2.6 42.9 0.49 66.66 0.49 65.37 5.22 63.57 9.77 61.29 14.11 58.56 18.18 55.41 21.93 51.87 25.32"/><path class="cls-4" d="M58.06,6.78a16.54,16.54,0,0,1,5.55,19" transform="translate(-11.74 -0.51)"/><path class="cls-4" d="M58.06,6.78A13.05,13.05,0,0,1,54.65,1" transform="translate(-11.74 -0.51)"/><line class="cls-4" x1="66.66" y1="0.49" x2="42.9" y2="0.49"/><path class="cls-4" d="M78.41,1a45.48,45.48,0,0,1-14.8,24.83" transform="translate(-11.74 -0.51)"/><polyline class="cls-6" points="85.85 70.11 74.31 70.11 73.81 65.15 74 60.16 74.88 55.24 76.44 50.5 78.64 46.02 81.44 41.88 84.79 38.18 88.61 34.97 92.85 32.33 97.42 30.3 102.22 28.93 102.63 28.93 98.49 33.92 94.87 39.31 91.83 45.03 89.38 51.04 87.56 57.27 86.38 63.65 85.85 70.11"/><line class="cls-4" x1="74.31" y1="70.12" x2="85.85" y2="70.12"/><path class="cls-4" d="M86.06,70.62a35.52,35.52,0,0,1-.52-6.09A35.87,35.87,0,0,1,114,29.44" transform="translate(-11.74 -0.51)"/><path class="cls-4" d="M97.59,70.62a63.61,63.61,0,0,1,16.79-41.18" transform="translate(-11.74 -0.51)"/><polyline class="cls-5" points="74.31 93.48 71.4 86.76 67.97 80.29 64.04 74.11 59.63 68.27 54.77 62.78 55.62 68.72 57.17 74.5 59.4 80.07 62.27 85.32 65.75 90.2 69.78 94.63 74.31 98.55 69.41 97.54 64.68 95.89 60.21 93.64 56.07 90.82 52.34 87.48 49.08 83.68 46.34 79.49 44.18 74.98 42.63 70.22 41.71 65.29 41.45 60.29 41.84 55.3 42.52 50.12 43.71 45.02 45.41 40.07 47.59 35.32 50.24 30.81 50.19 33.27 50.62 35.7 51.51 38 52.84 40.08 54.55 41.86 58.69 45.2 62.43 48.97 65.72 53.14 68.53 57.65 70.82 62.45 72.56 67.47 73.73 72.66 74.31 77.94 74.31 93.48"/><path class="cls-4" d="M66.52,63.29A92.57,92.57,0,0,1,86.06,94" transform="translate(-11.74 -0.51)"/><path class="cls-4" d="M86.06,99.06A50.27,50.27,0,0,1,66.52,63.29" transform="translate(-11.74 -0.51)"/><path class="cls-4" d="M86.06,99.06A38.11,38.11,0,0,1,53.19,61.31a37.49,37.49,0,0,1,.4-5.5" transform="translate(-11.74 -0.51)"/><path class="cls-4" d="M53.59,55.81A52.11,52.11,0,0,1,62,31.32" transform="translate(-11.74 -0.51)"/><path class="cls-4" d="M66.29,42.37a12.57,12.57,0,0,1-4.39-9.55,14.91,14.91,0,0,1,.08-1.5" transform="translate(-11.74 -0.51)"/><path class="cls-4" d="M66.29,42.37A47.57,47.57,0,0,1,86.06,78.45" transform="translate(-11.74 -0.51)"/><line class="cls-4" x1="74.31" y1="93.48" x2="74.31" y2="77.94"/><polyline class="cls-7" points="33.15 28.93 33.13 28.93 33.13 0.49 39.4 0.49 41.96 3.87 44.04 7.57 45.61 11.5 46.64 15.62 47.11 19.83 47.01 24.07 46.38 29.69 45.16 35.21 43.38 40.57 41.04 45.72 38.17 50.59 35.88 45.46 34.26 40.09 33.35 34.54 33.15 28.93"/><line class="cls-4" x1="33.13" y1="28.93" x2="33.15" y2="28.93"/><line class="cls-4" x1="33.13" y1="0.49" x2="33.13" y2="28.93"/><line class="cls-4" x1="39.4" y1="0.49" x2="33.13" y2="0.49"/><path class="cls-4" d="M51.15,1a31.64,31.64,0,0,1,7.73,20.71c0,1,0,1.92-.13,2.87" transform="translate(-11.74 -0.51)"/><path class="cls-4" d="M58.75,24.58A54,54,0,0,1,49.92,51.1" transform="translate(-11.74 -0.51)"/><path class="cls-4" d="M49.92,51.1a43.68,43.68,0,0,1-5-20.37c0-.43,0-.86,0-1.29" transform="translate(-11.74 -0.51)"/><polyline class="cls-7" points="98.27 70.11 90.61 70.11 90.23 66.73 90.3 63.33 90.81 59.96 91.77 56.69 92.62 60.37 94.02 63.89 95.91 67.16 98.27 70.11"/><line class="cls-4" x1="90.61" y1="70.12" x2="98.27" y2="70.12"/><path class="cls-4" d="M102.36,70.62a25.06,25.06,0,0,1-.41-4.57,25.94,25.94,0,0,1,1.56-8.85" transform="translate(-11.74 -0.51)"/><path class="cls-4" d="M110,70.62a25.44,25.44,0,0,1-6.5-13.42" transform="translate(-11.74 -0.51)"/><polyline class="cls-7" points="4.69 70.11 4.69 47.19 8.36 49.28 11.7 51.86 14.65 54.89 17.15 58.3 19.14 62.02 20.59 65.98 21.48 70.11 4.69 70.11"/><line class="cls-4" x1="4.69" y1="47.19" x2="4.69" y2="70.12"/><path class="cls-4" d="M16.43,47.7A30.11,30.11,0,0,1,33.22,70.62" transform="translate(-11.74 -0.51)"/><line class="cls-4" x1="4.69" y1="70.12" x2="21.48" y2="70.12"/><polyline class="cls-8" points="70.77 54.26 67.44 50.43 64.69 46.16 62.57 41.54 61.13 36.68 60.38 31.65 60.35 26.57 61.05 21.54 62.44 16.66 64.52 12.02 67.22 7.73 70.51 3.86 74.31 0.49 74.31 28.93 84.57 28.93 82.77 34.46 80.47 39.81 77.69 44.92 74.45 49.75 70.77 54.26"/><path class="cls-4" d="M82.51,54.77A35.83,35.83,0,0,1,86.06,1" transform="translate(-11.74 -0.51)"/><line class="cls-4" x1="74.31" y1="28.93" x2="74.31" y2="0.49"/><line class="cls-4" x1="84.57" y1="28.93" x2="74.31" y2="28.93"/><path class="cls-4" d="M96.31,29.44a62.82,62.82,0,0,1-13.8,25.33" transform="translate(-11.74 -0.51)"/><polyline class="cls-8" points="33.13 98.55 33.13 75.66 39.65 79.27 45.86 83.39 51.71 88 57.18 93.06 62.22 98.55 33.13 98.55"/><line class="cls-4" x1="33.13" y1="75.66" x2="33.13" y2="98.55"/><path class="cls-4" d="M44.87,76.17A92.44,92.44,0,0,1,74,99.06" transform="translate(-11.74 -0.51)"/><line class="cls-4" x1="33.13" y1="98.55" x2="62.22" y2="98.55"/><polyline class="cls-8" points="102.75 70.11 100.19 67.11 98.12 63.74 96.61 60.09 95.69 56.25 95.38 52.31 95.69 48.37 96.61 44.52 98.12 40.87 100.19 37.5 102.75 34.5 102.75 70.11"/><path class="cls-4" d="M114.5,70.62a25.17,25.17,0,0,1,0-35.61" transform="translate(-11.74 -0.51)"/><polyline class="cls-8" points="30.61 28.93 30.61 38.34 27.3 36.76 24.32 34.62 21.77 31.98 19.72 28.93 30.61 28.93"/><line class="cls-4" x1="30.61" y1="38.34" x2="30.61" y2="28.93"/><path class="cls-4" d="M42.35,38.85a20.59,20.59,0,0,1-10.88-9.41" transform="translate(-11.74 -0.51)"/><line class="cls-4" x1="30.61" y1="28.93" x2="19.72" y2="28.93"/><text class="cls-9" transform="translate(127.79 27.36)"><tspan class="cls-10">К</tspan><tspan x="12.08" y="0"> </tspan></text><text class="cls-11" transform="translate(148.87 27.36)">Л<tspan class="cls-12" x="13.94" y="0"> </tspan></text><text class="cls-9" transform="translate(171.79 27.36)"><tspan class="cls-10">И</tspan><tspan x="14.19" y="0"> </tspan></text><text class="cls-9" transform="translate(194.85 27.36)"><tspan class="cls-10">Н</tspan><tspan x="14.19" y="0"> </tspan></text><text class="cls-9" transform="translate(217.91 27.36)"><tspan class="cls-10">И</tspan><tspan x="14.19" y="0"> </tspan></text><text class="cls-9" transform="translate(240.97 27.36)"><tspan class="cls-10">К</tspan><tspan x="12.08" y="0"> </tspan></text><text class="cls-9" transform="translate(262.04 27.36)"><tspan class="cls-10" xml:space="preserve">А  </tspan><tspan x="27.25" y="0"> </tspan></text><text class="cls-9" transform="translate(303.26 27.36)"><tspan class="cls-10">П</tspan><tspan x="14.19" y="0"> </tspan></text><text class="cls-9" transform="translate(326.32 27.36)"><tspan class="cls-10">Р</tspan><tspan x="12.47" y="0"> </tspan></text><text class="cls-11" transform="translate(347.79 27.36)">О<tspan class="cls-12" x="12.37" y="0"> </tspan></text><text class="cls-9" transform="translate(369.13 27.36)"><tspan class="cls-13">Ф</tspan><tspan x="18.92" y="0"> </tspan></text><text class="cls-9" transform="translate(396.69 27.36)"><tspan class="cls-13">Е</tspan><tspan x="10.36" y="0"> </tspan></text><text class="cls-14" transform="translate(416.18 27.36)">С<tspan class="cls-15" x="11.8" y="0"> </tspan></text><text class="cls-14" transform="translate(436.98 27.36)">С<tspan class="cls-15" x="11.8" y="0"> </tspan></text><text class="cls-14" transform="translate(457.79 27.36)">О<tspan class="cls-15" x="12.37" y="0"> </tspan></text><text class="cls-9" transform="translate(479.13 27.36)"><tspan class="cls-13">Р</tspan><tspan x="12.47" y="0"> </tspan></text><text class="cls-9" transform="translate(500.6 27.36)">А</text><text class="cls-16" transform="translate(125.79 84.8)">БАЛТАБАЕВА</text></svg>